<?xml version="1.0" encoding="utf-8"?>
<!-- Generator: Adobe Illustrator 21.1.0, SVG Export Plug-In . SVG Version: 6.00 Build 0)  -->
<svg version="1.1" id="Layer_1" xmlns="http://www.w3.org/2000/svg" xmlns:xlink="http://www.w3.org/1999/xlink" x="0px" y="0px"
	 viewBox="0 0 614 108.6" style="enable-background:new 0 0 614 108.6;" xml:space="preserve">
<style type="text/css">
	.st0{fill:#413D61;}
	.st1{fill:#29ABE2;}
	.st2{fill:#FFFFFF;}
</style>
<g>
	<g>
		<path class="st0" d="M149.5,21.8h13.9l26.1,65.3H175l-5.6-14.2h-25.9L138,87.1h-14.6L149.5,21.8z M165.7,61.6l-9.2-24.8l-9.2,24.8
			H165.7z"/>
		<path class="st0" d="M210.1,107.8c-3-0.6-5.6-1.3-7.6-2.2V95.2c4.8,2.1,10.3,3.2,16.6,3.2c5,0,8.7-1,10.8-3.1
			c2.2-2.1,3.3-5.1,3.3-9.2v-2.8c-1.9,1.7-4.3,3.1-7.1,4c-2.8,0.9-5.8,1.4-9,1.4c-4.6,0-8.7-1-12.4-3c-3.6-2-6.5-4.8-8.5-8.5
			c-2.1-3.6-3.1-7.7-3.1-12.3c0-4.7,1-8.9,3-12.5c2-3.6,4.8-6.4,8.4-8.4c3.6-2,7.7-2.9,12.3-2.9c3.5,0,6.6,0.5,9.2,1.5
			c2.7,1,5.2,2.6,7.6,4.8v-4.9h13.6v41.9c0,7.8-2.3,13.8-6.9,18c-4.6,4.2-11.7,6.4-21.3,6.4C216.1,108.6,213.1,108.3,210.1,107.8z
			 M228.4,75.2c2.3-1.6,3.9-3.7,4.8-6.3v-8.4c-1-2.6-2.6-4.7-4.9-6.3c-2.3-1.6-4.9-2.3-7.8-2.3c-3.8,0-6.9,1.2-9.3,3.5
			c-2.4,2.3-3.6,5.4-3.6,9.2c0,3.9,1.2,7.1,3.6,9.4c2.4,2.4,5.5,3.5,9.3,3.5C223.5,77.6,226.1,76.8,228.4,75.2z"/>
		<path class="st0" d="M257.1,33.2c-1.5-1.4-2.2-3.2-2.2-5.4c0-2.1,0.7-3.9,2.2-5.4c1.5-1.5,3.3-2.2,5.5-2.2c2.2,0,4,0.7,5.5,2.2
			c1.5,1.5,2.2,3.3,2.2,5.4c0,2.2-0.7,4-2.2,5.4c-1.5,1.4-3.3,2.2-5.5,2.2C260.4,35.4,258.5,34.7,257.1,33.2z M255.5,42.3h14.2v44.8
			h-14.2V42.3z"/>
		<path class="st0" d="M277.7,18.1h14.1v69h-14.1V18.1z"/>
		<path class="st0" d="M304.8,82.3c-4.9-4.1-7.4-9.9-7.4-17.4c0-7.4,2.2-13.3,6.6-17.6c4.4-4.3,10.7-6.4,18.8-6.4
			c5.4,0,9.9,1,13.6,3c3.7,2,6.6,4.7,8.5,8.3c1.9,3.5,2.9,7.5,2.9,11.9v5.7h-37c1,5.7,6.4,8.6,16.1,8.6c2.9,0,5.8-0.2,8.9-0.7
			c3.1-0.5,5.7-1.2,7.9-2.1v9.9c-2.2,0.9-5,1.7-8.4,2.2c-3.4,0.6-6.9,0.8-10.3,0.8C316.5,88.5,309.7,86.5,304.8,82.3z M334.5,60.6
			c-0.2-3-1.3-5.3-3.4-7c-2.1-1.7-4.9-2.5-8.5-2.5c-3.5,0-6.4,0.8-8.4,2.5c-2.1,1.7-3.2,4-3.4,6.9H334.5z"/>
		<path class="st1" d="M354.6,21.8h9.1l33.3,49.2V21.8h9.6v65.3h-9.2l-33.3-49.2v49.2h-9.5V21.8z"/>
		<path class="st1" d="M426.6,85.7c-3.8-1.9-6.8-4.6-9-8.2c-2.2-3.6-3.2-7.8-3.2-12.7c0-4.8,1.1-9,3.2-12.6c2.1-3.6,5.1-6.4,9-8.4
			c3.9-2,8.3-2.9,13.4-2.9c5,0,9.5,1,13.4,2.9c3.9,2,6.9,4.7,9,8.4c2.2,3.6,3.2,7.8,3.2,12.6c0,4.9-1.1,9.1-3.2,12.7
			c-2.1,3.6-5.2,6.3-9,8.2c-3.9,1.9-8.3,2.8-13.4,2.8C434.9,88.5,430.5,87.6,426.6,85.7z M451.5,76.6c2.9-3,4.3-6.9,4.3-11.8
			c0-5-1.4-9-4.3-12c-2.9-2.9-6.7-4.4-11.6-4.4s-8.7,1.5-11.6,4.4c-2.9,2.9-4.3,6.9-4.3,12c0,4.9,1.4,8.8,4.3,11.8
			c2.9,3,6.7,4.5,11.6,4.5S448.7,79.6,451.5,76.6z"/>
		<path class="st1" d="M465.5,42.3h9.6l10.1,33.3l10-33.3h8.5l10,33.3l10.1-33.3h9.7L519,87.1h-9.1l-10.4-33.4l-10.4,33.4H480
			L465.5,42.3z"/>
		<path class="st1" d="M536.4,85.9c-0.8-0.8-1.3-1.9-1.3-3.1c0-1.2,0.4-2.3,1.3-3.2c0.8-0.9,1.9-1.3,3.1-1.3c1.2,0,2.3,0.4,3.2,1.3
			c0.9,0.9,1.3,1.9,1.3,3.2c0,1.2-0.4,2.3-1.3,3.1c-0.9,0.8-1.9,1.3-3.2,1.3C538.3,87.1,537.3,86.7,536.4,85.9z"/>
		<path class="st1" d="M555,84.4c-3.3-2.8-4.9-6.5-4.9-11.3c0-5,1.6-8.8,4.7-11.5c3.1-2.7,7.6-4.1,13.4-4.1c6.2,0,11.4,1.2,15.7,3.7
			v-2.3c0-3.6-1.1-6.2-3.2-7.9c-2.1-1.7-5.5-2.6-10.1-2.6c-2.7,0-5.4,0.3-8,0.8c-2.6,0.5-4.9,1.3-7,2.2v-7.7
			c1.9-0.9,4.3-1.6,7.3-2.1s5.9-0.8,8.7-0.8c7.4,0,12.9,1.6,16.5,4.9c3.6,3.3,5.4,7.8,5.4,13.6v27.7h-8.9v-5
			c-1.9,2.1-4.2,3.7-6.9,4.8c-2.6,1.1-5.9,1.6-9.7,1.6C562.6,88.5,558.3,87.1,555,84.4z M578.5,79.6c2.4-1.2,4.2-2.8,5.4-4.9v-6.1
			c-4-2.6-8.6-3.9-13.5-3.9c-3.6,0-6.3,0.7-8.1,2.1s-2.7,3.5-2.7,6.4c0,5.5,3.6,8.2,10.7,8.2C573.4,81.3,576.1,80.7,578.5,79.6z"/>
		<path class="st1" d="M604.4,31.9c-1.1-1.1-1.6-2.4-1.6-3.9c0-1.6,0.5-2.9,1.6-3.9c1.1-1.1,2.4-1.6,3.9-1.6c1.6,0,3,0.5,4.1,1.6
			c1.1,1.1,1.6,2.4,1.6,3.9c0,1.6-0.5,2.9-1.6,3.9c-1.1,1.1-2.4,1.6-4.1,1.6C606.7,33.5,605.4,33,604.4,31.9z M603.5,42.3h9.6v44.8
			h-9.6V42.3z"/>
	</g>
	<g>
		<path class="st1" d="M22.7,106c-11,0-20-9-20-20V22.7c0-11,9-20,20-20h63.3c11,0,20,9,20,20v42.7L65.4,106H22.7z"/>
		<g>
			<path class="st2" d="M27.2,68.5c-4,0-7.3,2.7-8.4,6.4H2.6v4.6h16.2c1,3.7,4.4,6.4,8.4,6.4c4.8,0,8.7-3.9,8.7-8.7
				C35.9,72.4,32,68.5,27.2,68.5z M27.2,73.1c2.3,0,4.1,1.8,4.1,4.1c0,2.3-1.8,4.1-4.1,4.1s-4.1-1.8-4.1-4.1
				C23.1,75,24.9,73.1,27.2,73.1z"/>
			<path class="st2" d="M46.3,45.6c-4,0-7.3,2.7-8.4,6.4H2.6v4.6h35.3c1,3.7,4.4,6.4,8.4,6.4c4.8,0,8.7-3.9,8.7-8.7
				S51.1,45.6,46.3,45.6z M46.3,50.2c2.3,0,4.1,1.8,4.1,4.1s-1.8,4.1-4.1,4.1s-4.1-1.8-4.1-4.1S44,50.2,46.3,50.2z"/>
			<path class="st2" d="M57,29.1H2.6v4.6H57c1,3.7,4.4,6.4,8.4,6.4c4.8,0,8.7-3.9,8.7-8.7s-3.9-8.7-8.7-8.7
				C61.3,22.7,58,25.4,57,29.1z M65.3,27.3c2.3,0,4.1,1.8,4.1,4.1s-1.8,4.1-4.1,4.1s-4.1-1.8-4.1-4.1S63.1,27.3,65.3,27.3z"/>
		</g>
		<g>
			<path class="st0" d="M65.4,108.6H22.7C10.2,108.6,0,98.4,0,85.9V22.7C0,10.2,10.2,0,22.7,0h63.3c12.5,0,22.7,10.2,22.7,22.7v42.7
				c0,0.7-0.3,1.4-0.8,1.9l-40.6,40.6C66.8,108.3,66.1,108.6,65.4,108.6z M22.7,5.3c-9.6,0-17.4,7.8-17.4,17.4v63.3
				c0,9.6,7.8,17.4,17.4,17.4h41.6l39.1-39.1V22.7c0-9.6-7.8-17.4-17.4-17.4H22.7z"/>
		</g>
		<path class="st0" d="M85.4,65.4c-11,0-20,9-20,20V106L106,65.4H85.4z"/>
	</g>
</g>
</svg>
