<?xml version="1.0" encoding="utf-8"?>
<!-- Generator: Adobe Illustrator 21.1.0, SVG Export Plug-In . SVG Version: 6.00 Build 0)  -->
<svg version="1.1" id="Layer_1" xmlns="http://www.w3.org/2000/svg" xmlns:xlink="http://www.w3.org/1999/xlink" x="0px" y="0px"
	 viewBox="0 0 360 360" style="enable-background:new 0 0 360 360;" xml:space="preserve">
<style type="text/css">
	.st0{fill:#29ABE2;}
	.st1{fill:#413D61;}
</style>
<g>
	<g>
		<path class="st0" d="M103.8,256c0-7.5-6.1-13.6-13.6-13.6c-7.5,0-13.6,6.1-13.6,13.6c0,7.5,6.1,13.6,13.6,13.6
			C97.7,269.6,103.8,263.5,103.8,256z"/>
		<path class="st0" d="M284.9,8.7H75.1C38.5,8.7,8.7,38.5,8.7,75.1v21.3h180.1c3.4-12.2,14.5-21.3,27.7-21.3
			c15.9,0,28.9,13,28.9,28.9c0,15.9-13,28.9-28.9,28.9c-13.3,0-24.4-9-27.7-21.3H8.7v60.7h116.9c3.4-12.2,14.5-21.3,27.7-21.3
			c15.9,0,28.9,13,28.9,28.9c0,15.9-13,28.9-28.9,28.9c-13.3,0-24.4-9-27.7-21.3H8.7v60.7h53.7c3.4-12.2,14.5-21.3,27.7-21.3
			c15.9,0,28.9,13,28.9,28.9c0,15.9-13,28.9-28.9,28.9c-13.3,0-24.4-9-27.7-21.3H8.7v21.3c0,36.6,29.8,66.4,66.4,66.4h141.6
			l134.6-134.6V75.1C351.3,38.5,321.5,8.7,284.9,8.7z"/>
		<path class="st0" d="M167,180c0-7.5-6.1-13.6-13.6-13.6c-7.5,0-13.6,6.1-13.6,13.6c0,7.5,6.1,13.6,13.6,13.6
			C160.9,193.6,167,187.5,167,180z"/>
		<path class="st0" d="M230.2,104c0-7.5-6.1-13.6-13.6-13.6c-7.5,0-13.6,6.1-13.6,13.6c0,7.5,6.1,13.6,13.6,13.6
			C224.1,117.7,230.2,111.5,230.2,104z"/>
	</g>
	<g>
		<path class="st1" d="M216.7,360H75.1C33.7,360,0,326.3,0,284.9V75.1C0,33.7,33.7,0,75.1,0h209.7C326.3,0,360,33.7,360,75.1v141.6
			c0,2.3-0.9,4.5-2.6,6.2L222.9,357.4C221.2,359.1,219,360,216.7,360z M75.1,17.5c-31.8,0-57.7,25.9-57.7,57.7v209.7
			c0,31.8,25.9,57.7,57.7,57.7h137.9l129.4-129.4V75.1c0-31.8-25.9-57.7-57.7-57.7H75.1z"/>
	</g>
	<path class="st1" d="M283.1,216.7c-36.6,0-66.4,29.8-66.4,66.4v68.2l134.6-134.6H283.1z"/>
</g>
</svg>
